<svg width="153" height="38" viewBox="0 0 153 38" fill="none" xmlns="http://www.w3.org/2000/svg">
<path d="M0.878906 28.1818L0.878909 9.39392L10.2728 14.6128V23.0151L17.788 27.2424L25.3031 23.0151V14.6128L34.6971 9.39392V28.1818L17.788 37.5757L0.878906 28.1818Z" fill="#192657"/>
<path fill-rule="evenodd" clip-rule="evenodd" d="M5.57588 12.0034L0.878906 9.39394L17.788 0L34.6971 9.39394L30.0001 12.0034V25.8333L17.788 32.8788L5.57587 25.8333L5.57588 12.0034ZM29.4913 12.2861L25.3031 14.6128V14.5606L17.788 10.3333L10.2728 14.5606V14.6128L6.08471 12.2861V25.5443L17.788 32.2962L29.4913 25.5443V12.2861Z" fill="url(#paint0_linear_40_250)"/>
<path d="M43.7002 26.697V10.9152H46.6762V23.9915H53.8908V26.697H43.7002Z" fill="#192657"/>
<path d="M60.3159 27.0127C59.2037 27.0127 58.2042 26.7873 57.3174 26.3363C56.4306 25.8854 55.7317 25.2316 55.2207 24.3749C54.7096 23.5182 54.4541 22.4886 54.4541 21.2862V20.9254C54.4541 19.723 54.7096 18.6934 55.2207 17.8367C55.7317 16.98 56.4306 16.3262 57.3174 15.8753C58.2042 15.4243 59.2037 15.1989 60.3159 15.1989C61.4282 15.1989 62.4277 15.4243 63.3145 15.8753C64.2013 16.3262 64.9002 16.98 65.4112 17.8367C65.9222 18.6934 66.1778 19.723 66.1778 20.9254V21.2862C66.1778 22.4886 65.9222 23.5182 65.4112 24.3749C64.9002 25.2316 64.2013 25.8854 63.3145 26.3363C62.4277 26.7873 61.4282 27.0127 60.3159 27.0127ZM60.3159 24.4876C61.1877 24.4876 61.9092 24.2096 62.4803 23.6534C63.0515 23.0823 63.337 22.2706 63.337 21.2185V20.9931C63.337 19.941 63.0515 19.1368 62.4803 18.5807C61.9242 18.0096 61.2027 17.724 60.3159 17.724C59.4442 17.724 58.7227 18.0096 58.1516 18.5807C57.5804 19.1368 57.2949 19.941 57.2949 20.9931V21.2185C57.2949 22.2706 57.5804 23.0823 58.1516 23.6534C58.7227 24.2096 59.4442 24.4876 60.3159 24.4876Z" fill="#192657"/>
<path d="M67.2441 21.1509V20.7902C67.2441 19.6178 67.477 18.6183 67.943 17.7916C68.4089 16.9499 69.0252 16.3111 69.7917 15.8753C70.5733 15.4243 71.4225 15.1989 72.3393 15.1989C73.3614 15.1989 74.1355 15.3793 74.6615 15.74C75.1876 16.1007 75.5709 16.4765 75.8113 16.8673H76.2172V15.5145H79.0128V28.6811C79.0128 29.4476 78.7873 30.0563 78.3364 30.5073C77.8855 30.9732 77.2843 31.2062 76.5328 31.2062H69.0477V28.7262H75.5408C75.9616 28.7262 76.1721 28.5007 76.1721 28.0498V25.1414H75.7662C75.6159 25.3819 75.4055 25.6299 75.135 25.8854C74.8644 26.1259 74.5037 26.3288 74.0528 26.4942C73.6019 26.6595 73.0307 26.7422 72.3393 26.7422C71.4225 26.7422 70.5733 26.5242 69.7917 26.0883C69.0252 25.6374 68.4089 24.9986 67.943 24.172C67.477 23.3303 67.2441 22.3233 67.2441 21.1509ZM73.151 24.2622C74.0227 24.2622 74.7517 23.9841 75.3379 23.428C75.9241 22.8719 76.2172 22.0903 76.2172 21.0833V20.8578C76.2172 19.8357 75.9241 19.0542 75.3379 18.5131C74.7667 17.957 74.0378 17.6789 73.151 17.6789C72.2792 17.6789 71.5502 17.957 70.9641 18.5131C70.3779 19.0542 70.0848 19.8357 70.0848 20.8578V21.0833C70.0848 22.0903 70.3779 22.8719 70.9641 23.428C71.5502 23.9841 72.2792 24.2622 73.151 24.2622Z" fill="#192657"/>
<path d="M86.4687 27.0127C85.3564 27.0127 84.3569 26.7873 83.4701 26.3363C82.5833 25.8854 81.8844 25.2316 81.3734 24.3749C80.8624 23.5182 80.6069 22.4886 80.6069 21.2862V20.9254C80.6069 19.723 80.8624 18.6934 81.3734 17.8367C81.8844 16.98 82.5833 16.3262 83.4701 15.8753C84.3569 15.4243 85.3564 15.1989 86.4687 15.1989C87.5809 15.1989 88.5804 15.4243 89.4672 15.8753C90.354 16.3262 91.0529 16.98 91.5639 17.8367C92.075 18.6934 92.3305 19.723 92.3305 20.9254V21.2862C92.3305 22.4886 92.075 23.5182 91.5639 24.3749C91.0529 25.2316 90.354 25.8854 89.4672 26.3363C88.5804 26.7873 87.5809 27.0127 86.4687 27.0127ZM86.4687 24.4876C87.3404 24.4876 88.0619 24.2096 88.633 23.6534C89.2042 23.0823 89.4898 22.2706 89.4898 21.2185V20.9931C89.4898 19.941 89.2042 19.1368 88.633 18.5807C88.0769 18.0096 87.3555 17.724 86.4687 17.724C85.5969 17.724 84.8755 18.0096 84.3043 18.5807C83.7332 19.1368 83.4476 19.941 83.4476 20.9931V21.2185C83.4476 22.2706 83.7332 23.0823 84.3043 23.6534C84.8755 24.2096 85.5969 24.4876 86.4687 24.4876Z" fill="#192657"/>
<path d="M93.938 26.697V15.5144H96.7787V26.697H93.938ZM95.3583 14.2068C94.8473 14.2068 94.4114 14.0415 94.0507 13.7108C93.705 13.3801 93.5322 12.9442 93.5322 12.4032C93.5322 11.8621 93.705 11.4262 94.0507 11.0955C94.4114 10.7649 94.8473 10.5995 95.3583 10.5995C95.8844 10.5995 96.3203 10.7649 96.666 11.0955C97.0117 11.4262 97.1845 11.8621 97.1845 12.4032C97.1845 12.9442 97.0117 13.3801 96.666 13.7108C96.3203 14.0415 95.8844 14.2068 95.3583 14.2068Z" fill="#192657"/>
<path d="M98.9121 31.2062V15.5145H101.708V16.8673H102.114C102.369 16.4314 102.767 16.0481 103.309 15.7174C103.85 15.3717 104.624 15.1989 105.631 15.1989C106.533 15.1989 107.367 15.4243 108.133 15.8753C108.9 16.3111 109.516 16.9574 109.982 17.8142C110.448 18.6709 110.681 19.708 110.681 20.9254V21.2862C110.681 22.5036 110.448 23.5407 109.982 24.3974C109.516 25.2542 108.9 25.908 108.133 26.3589C107.367 26.7948 106.533 27.0127 105.631 27.0127C104.954 27.0127 104.383 26.93 103.917 26.7647C103.466 26.6144 103.098 26.419 102.813 26.1785C102.542 25.923 102.324 25.6675 102.159 25.412H101.753V31.2062H98.9121ZM104.774 24.5327C105.661 24.5327 106.39 24.2546 106.961 23.6985C107.547 23.1274 107.84 22.3007 107.84 21.2185V20.9931C107.84 19.9109 107.547 19.0917 106.961 18.5356C106.375 17.9645 105.646 17.6789 104.774 17.6789C103.902 17.6789 103.173 17.9645 102.587 18.5356C102.001 19.0917 101.708 19.9109 101.708 20.9931V21.2185C101.708 22.3007 102.001 23.1274 102.587 23.6985C103.173 24.2546 103.902 24.5327 104.774 24.5327Z" fill="#192657"/>
<path d="M116.919 27.0127C115.461 27.0127 114.266 26.6971 113.334 26.0658C112.403 25.4345 111.839 24.5327 111.643 23.3603L114.259 22.684C114.364 23.21 114.537 23.6234 114.777 23.924C115.033 24.2246 115.341 24.4425 115.702 24.5778C116.077 24.698 116.483 24.7582 116.919 24.7582C117.58 24.7582 118.069 24.6454 118.385 24.42C118.7 24.1795 118.858 23.8864 118.858 23.5407C118.858 23.195 118.708 22.932 118.407 22.7516C118.107 22.5562 117.626 22.3984 116.964 22.2782L116.333 22.1654C115.551 22.0151 114.837 21.8122 114.191 21.5567C113.545 21.2862 113.026 20.9179 112.635 20.452C112.245 19.986 112.049 19.3848 112.049 18.6483C112.049 17.5361 112.455 16.6869 113.267 16.1007C114.078 15.4995 115.146 15.1989 116.468 15.1989C117.716 15.1989 118.753 15.477 119.579 16.0331C120.406 16.5892 120.947 17.3182 121.203 18.22L118.565 19.0316C118.445 18.4605 118.197 18.0546 117.821 17.8142C117.46 17.5737 117.009 17.4534 116.468 17.4534C115.927 17.4534 115.514 17.5511 115.228 17.7465C114.943 17.9269 114.8 18.1824 114.8 18.5131C114.8 18.8738 114.95 19.1443 115.251 19.3247C115.551 19.49 115.957 19.6178 116.468 19.708L117.099 19.8207C117.941 19.971 118.7 20.1739 119.377 20.4294C120.068 20.6699 120.609 21.0231 121 21.4891C121.406 21.94 121.609 22.5562 121.609 23.3378C121.609 24.5102 121.18 25.4195 120.323 26.0658C119.482 26.6971 118.347 27.0127 116.919 27.0127Z" fill="#192657"/>
<path d="M127.344 26.8773C126.473 26.8773 125.706 26.6819 125.045 26.2912C124.399 25.8853 123.895 25.3292 123.534 24.6228C123.174 23.9164 122.993 23.1047 122.993 22.1879V15.5144H125.834V21.9624C125.834 22.8041 126.037 23.4354 126.443 23.8562C126.863 24.2771 127.457 24.4875 128.224 24.4875C129.095 24.4875 129.772 24.2019 130.253 23.6308C130.734 23.0446 130.974 22.233 130.974 21.1959V15.5144H133.815V26.697H131.019V25.2315H130.614C130.433 25.6073 130.095 25.9755 129.599 26.3362C129.103 26.697 128.351 26.8773 127.344 26.8773Z" fill="#192657"/>
<path d="M135.962 26.697V15.5144H138.757V16.7319H139.163C139.358 16.3561 139.682 16.033 140.132 15.7624C140.583 15.4769 141.177 15.3341 141.914 15.3341C142.71 15.3341 143.349 15.4919 143.83 15.8075C144.311 16.1081 144.679 16.5064 144.935 17.0024H145.34C145.596 16.5215 145.957 16.1232 146.423 15.8075C146.889 15.4919 147.55 15.3341 148.407 15.3341C149.098 15.3341 149.722 15.4844 150.278 15.785C150.849 16.0705 151.3 16.5139 151.631 17.1152C151.976 17.7013 152.149 18.4453 152.149 19.3472V26.697H149.308V19.5501C149.308 18.9338 149.151 18.4754 148.835 18.1748C148.519 17.8592 148.076 17.7013 147.505 17.7013C146.859 17.7013 146.355 17.9118 145.994 18.3326C145.649 18.7384 145.476 19.3246 145.476 20.0912V26.697H142.635V19.5501C142.635 18.9338 142.477 18.4754 142.162 18.1748C141.846 17.8592 141.403 17.7013 140.831 17.7013C140.185 17.7013 139.682 17.9118 139.321 18.3326C138.975 18.7384 138.802 19.3246 138.802 20.0912V26.697H135.962Z" fill="#192657"/>
<defs>
<linearGradient id="paint0_linear_40_250" x1="5.57587" y1="7.30638" x2="30.9395" y2="7.30639" gradientUnits="userSpaceOnUse">
<stop stop-color="#64C2DB"/>
<stop offset="0.307292" stop-color="#7476ED"/>
<stop offset="0.604167" stop-color="#C994DF"/>
<stop offset="1" stop-color="#E56F8C"/>
</linearGradient>
</defs>
</svg>
